<svg fill="none" height="15" viewBox="0 0 15 15" width="15" xmlns="http://www.w3.org/2000/svg"><path clip-rule="evenodd" d="m9 3.5c0-.27614.22386-.5.5-.5h2c1.3807 0 2.5 1.11929 2.5 2.5v4c0 1.3807-1.1193 2.5-2.5 2.5h-2c-.27614 0-.5-.2239-.5-.5s.22386-.5.5-.5h2c.8284 0 1.5-.6716 1.5-1.5v-4c0-.82843-.6716-1.5-1.5-1.5h-2c-.27614 0-.5-.22386-.5-.5zm-3.85355.64645c.19526-.19527.51184-.19527.7071 0l3 3c.19527.19526.19527.51184 0 .7071l-3 3.00005c-.19526.1952-.51184.1952-.7071 0-.19527-.1953-.19527-.5119 0-.7072l2.14644-2.1464h-5.79289c-.27614 0-.5-.22386-.5-.5s.22386-.5.5-.5h5.79289l-2.14644-2.14645c-.19527-.19526-.19527-.51184 0-.7071z" fill="#151515" fill-rule="evenodd"/></svg>