<svg fill="none" height="24" viewBox="0 0 24 24" width="24" xmlns="http://www.w3.org/2000/svg"><g fill="#000001"><path d="m3.75 4c-.41421 0-.75.33579-.75.75s.33579.75.75.75h2.5c.41421 0 .75-.33579.75-.75s-.33579-.75-.75-.75z"/><path d="m3 9.75c0-.41421.33579-.75.75-.75h6.5c.4142 0 .75.33579.75.75 0 .4142-.3358.75-.75.75h-6.5c-.41421 0-.75-.3358-.75-.75z"/><path d="m3.75 14c-.41421 0-.75.3358-.75.75s.33579.75.75.75h6.5c.4142 0 .75-.3358.75-.75s-.3358-.75-.75-.75z"/><path d="m3.75 19c-.41421 0-.75.3358-.75.75s.33579.75.75.75h16.25c.4142 0 .75-.3358.75-.75s-.3358-.75-.75-.75z"/><path d="m12.9517 12.2383c.2826-.3028.7572-.3192 1.06-.0366l2.4883 2.3224v-5.7741c0-.86195-.3424-1.6886-.9519-2.2981-.6095-.60949-1.4361-.9519-2.2981-.9519h-2c-.4142 0-.75-.33579-.75-.75s.3358-.75.75-.75h2c1.2598 0 2.468.50044 3.3588 1.39124s1.3912 2.09898 1.3912 3.35876v5.7741l2.4883-2.3224c.3028-.2826.7774-.2662 1.06.0366s.2663.7774-.0366 1.06l-3.75 3.5c-.2881.2689-.7353.2689-1.0234 0l-3.75-3.5c-.3028-.2826-.3192-.7572-.0366-1.06z"/></g></svg>