<svg height="24" viewBox="0 0 24 24" width="24" xmlns="http://www.w3.org/2000/svg"><path d="m18.75 7.99874576c1.7330315 0 3.1492459 1.35645476 3.2448552 3.06557614l.0051448.1844239v7.5c0 1.7330314-1.3564548 3.1492459-3.0655761 3.2448552l-.1844239.0051448h-7.5c-1.73303146 0-3.14924593-1.3564548-3.24485521-3.0655761l-.00514479-.1844239v-7.5c0-1.7330315 1.35645477-3.14924597 3.0655761-3.24485525l.1844239-.00514479zm-3-2.99874576c1.351223 0 2.5098489.82460594 3.0001004 1.99804043l-7.5001004.00070533c-2.34721019 0-4.25 1.90278981-4.25 4.25000004l.0000564 7.502196c-1.12073738-.4673448-1.92373818-1.5442144-1.99491161-2.8165179l-.00514479-.1844239v-7.5c0-1.73303146 1.35645477-3.14924593 3.06557609-3.24485521l.18442391-.00514479zm-3-3c1.2997736 0 2.4213376.76300581 2.941219 1.86554427l.058781.13445573h-7.5l-.2123096.00553367c-2.27292848.12675661-4.0376904 1.9869151-4.0376904 4.24446633l.0000564 7.5009418c-1.12073738-.4673448-1.92373818-1.5442144-1.99491161-2.8165179l-.00514479-.1844239v-7.5c0-1.73303146 1.35645477-3.14924593 3.06557609-3.24485521l.18442391-.00514479z" fill="#212121"/></svg>